<?xml version="1.0" encoding="UTF-8" standalone="no"?><!DOCTYPE svg PUBLIC "-//W3C//DTD SVG 1.1//EN" "http://www.w3.org/Graphics/SVG/1.1/DTD/svg11.dtd"><svg width="100%" height="100%" viewBox="0 0 24 24" version="1.1" xmlns="http://www.w3.org/2000/svg" xmlns:xlink="http://www.w3.org/1999/xlink" xml:space="preserve" xmlns:serif="http://www.serif.com/" style="fill-rule:evenodd;clip-rule:evenodd;stroke-linejoin:round;stroke-miterlimit:1.41421;"><path d="M21.628,0.4l-15.256,0c-1.308,0 -2.372,1.064 -2.372,2.372l0,3.228l-1.628,0c-1.308,0 -2.372,1.064 -2.372,2.372l0,8.456c0,1.308 1.064,2.372 2.372,2.372l2.428,0l0,4c0,0.165 0.102,0.314 0.256,0.373c0.047,0.018 0.096,0.027 0.144,0.027c0.11,0 0.219,-0.046 0.296,-0.131l3.881,-4.269l8.251,0c1.308,0 2.372,-1.064 2.372,-2.372l0,-3.228l1.628,0c1.308,0 2.372,-1.064 2.372,-2.372l0,-8.456c0,-1.308 -1.064,-2.372 -2.372,-2.372Zm-2.428,16.428c0,0.867 -0.705,1.572 -1.572,1.572l-8.428,0c-0.113,0 -0.22,0.048 -0.296,0.131l-3.304,3.635l0,-3.366c0,-0.221 -0.179,-0.4 -0.4,-0.4l-2.828,0c-0.867,0 -1.572,-0.705 -1.572,-1.572l0,-8.456c0,-0.867 0.705,-1.572 1.572,-1.572l15.256,0c0.867,0 1.572,0.705 1.572,1.572l0,8.456Zm4,-5.6c0,0.867 -0.705,1.572 -1.572,1.572l-1.628,0l0,-4.428c0,-1.308 -1.064,-2.372 -2.372,-2.372l-12.828,0l0,-3.228c0,-0.867 0.705,-1.572 1.572,-1.572l15.256,0c0.867,0 1.572,0.705 1.572,1.572l0,8.456Z" style="fill:#80dfff;fill-rule:nonzero;"/></svg>