<?xml version="1.0" encoding="UTF-8" standalone="no"?><!DOCTYPE svg PUBLIC "-//W3C//DTD SVG 1.1//EN" "http://www.w3.org/Graphics/SVG/1.1/DTD/svg11.dtd"><svg width="100%" height="100%" viewBox="0 0 24 24" version="1.1" xmlns="http://www.w3.org/2000/svg" xmlns:xlink="http://www.w3.org/1999/xlink" xml:space="preserve" xmlns:serif="http://www.serif.com/" style="fill-rule:evenodd;clip-rule:evenodd;stroke-linejoin:round;stroke-miterlimit:1.41421;"><clipPath id="_clip1"><rect x="0" y="0" width="24" height="24"/></clipPath><g clip-path="url(#_clip1)"><g><path d="M23.887,22.898l-2.427,-2.539c0.71,-0.78 1.147,-1.813 1.147,-2.948c0,-2.421 -1.97,-4.39 -4.39,-4.39c-2.421,0 -4.391,1.969 -4.391,4.39c0,2.42 1.97,4.39 4.391,4.39c0.992,0 1.906,-0.335 2.642,-0.893l2.441,2.552c0.079,0.084 0.186,0.126 0.294,0.126c0.101,0 0.202,-0.037 0.281,-0.113c0.162,-0.155 0.168,-0.412 0.012,-0.575Zm-9.247,-5.487c0,-1.973 1.604,-3.577 3.577,-3.577c1.972,0 3.576,1.604 3.576,3.577c0,1.972 -1.604,3.576 -3.576,3.576c-1.973,0 -3.577,-1.604 -3.577,-3.576Z" style="fill:#80dfff;fill-rule:nonzero;"/><path d="M12.486,13.134c-0.094,-0.119 -0.438,-0.574 -0.773,-1.24l-0.019,-0.037c-0.002,-0.004 -0.003,-0.008 -0.005,-0.012c-0.045,-0.089 -0.088,-0.183 -0.132,-0.281l-0.021,-0.045c-0.022,-0.052 -0.045,-0.105 -0.068,-0.161c-0.008,-0.019 -0.015,-0.038 -0.023,-0.058c-0.022,-0.054 -0.043,-0.108 -0.066,-0.171c-0.042,-0.11 -0.08,-0.226 -0.118,-0.344l-0.029,-0.096c-0.038,-0.126 -0.074,-0.255 -0.105,-0.388c0,-0.003 -0.001,-0.005 -0.002,-0.008l-0.007,-0.03l-0.029,-0.131l-0.139,-0.09c-0.236,-0.152 -0.377,-0.407 -0.377,-0.682l0,-1.626c0,-0.228 0.097,-0.441 0.273,-0.6l0.134,-0.121l0,-2.532l0,-0.144l-0.011,-0.009c-0.015,-0.293 0.003,-1.193 0.66,-1.943c0.674,-0.768 1.824,-1.158 3.417,-1.158c1.588,0 2.736,0.387 3.41,1.15c0.792,0.895 0.662,2.04 0.66,2.05l-0.003,2.586l0.134,0.121c0.176,0.159 0.272,0.372 0.272,0.6l0,1.627c0,0.355 -0.232,0.666 -0.578,0.772c-0.214,0.066 -0.334,0.294 -0.268,0.508c0.066,0.215 0.293,0.334 0.508,0.269c0.689,-0.213 1.152,-0.836 1.152,-1.55l0,-1.626c0,-0.392 -0.146,-0.772 -0.407,-1.068l0,-2.163c0.023,-0.223 0.112,-1.555 -0.851,-2.653c-0.835,-0.953 -2.191,-1.436 -4.029,-1.436c-1.838,0 -3.194,0.483 -4.029,1.436c-0.583,0.666 -0.779,1.415 -0.839,1.954c-0.698,-0.361 -1.519,-0.543 -2.452,-0.543c-4.224,0 -4.47,3.6 -4.473,3.659l0,1.863c-0.263,0.287 -0.406,0.618 -0.406,0.947l0,1.405c0,0.438 0.196,0.848 0.533,1.124c0.335,1.265 1.16,2.22 1.482,2.556l0,1.115c0,0.32 -0.175,0.614 -0.477,0.779l-2.704,1.697c-1.037,0.565 -1.681,1.65 -1.681,2.83l0,1.544l10.98,0c0.225,0 0.406,-0.181 0.406,-0.406c0,-0.225 -0.181,-0.407 -0.406,-0.407l-4.474,0l0,-0.91c0,-1.046 0.571,-2.007 1.488,-2.507l3.629,-1.979c0.606,-0.331 0.983,-0.966 0.983,-1.657l0,-1.635l-0.094,-0.113c-0.001,-0.001 -0.011,-0.014 -0.026,-0.032Zm-0.693,1.78c0,0.393 -0.215,0.754 -0.56,0.943l-1.076,0.587l-0.264,0.144l-2.288,1.248c-1.179,0.643 -1.912,1.877 -1.912,3.221l0,0.91l-4.88,0l0,-0.731c0,-0.882 0.482,-1.693 1.278,-2.128l2.705,-1.697c0.542,-0.296 0.878,-0.863 0.878,-1.481l0,-1.46l-0.128,-0.12c-0.011,-0.01 -1.093,-1.04 -1.411,-2.422l-0.037,-0.161l-0.139,-0.09c-0.187,-0.121 -0.299,-0.324 -0.299,-0.542l0,-1.405c0,-0.146 0.099,-0.32 0.273,-0.477l0.134,-0.121l-0.001,-2.188c0.007,-0.117 0.219,-2.87 3.66,-2.87c0.974,0 1.793,0.225 2.44,0.668l0,1.924c-0.26,0.296 -0.406,0.676 -0.406,1.068l0,1.626c0,0.292 0.086,0.567 0.228,0.81c0.099,0.171 0.222,0.328 0.38,0.455c0.003,0.01 0.007,0.02 0.009,0.03c0.024,0.09 0.048,0.179 0.074,0.264l0.034,0.111c0.007,0.02 0.014,0.041 0.021,0.062c0.013,0.041 0.026,0.082 0.04,0.123c0.025,0.072 0.051,0.146 0.081,0.226c0.012,0.032 0.025,0.06 0.037,0.092c0.035,0.088 0.07,0.174 0.106,0.259c0.007,0.016 0.014,0.034 0.021,0.05l0.024,0.055c0.011,0.025 0.022,0.047 0.034,0.071c0.038,0.084 0.076,0.165 0.114,0.243c0.008,0.015 0.015,0.032 0.022,0.046l0.03,0.06c0.008,0.015 0.016,0.027 0.023,0.041c0.066,0.127 0.131,0.246 0.195,0.357c0.009,0.015 0.017,0.03 0.026,0.045c0.069,0.119 0.136,0.228 0.199,0.326c0.003,0.004 0.006,0.009 0.009,0.014c0.134,0.207 0.251,0.369 0.326,0.468l0,1.346l0,0Z" style="fill:#80dfff;fill-rule:nonzero;"/></g></g></svg>