<?xml version="1.0" encoding="UTF-8" standalone="no"?><!DOCTYPE svg PUBLIC "-//W3C//DTD SVG 1.1//EN" "http://www.w3.org/Graphics/SVG/1.1/DTD/svg11.dtd"><svg width="100%" height="100%" viewBox="0 0 24 24" version="1.1" xmlns="http://www.w3.org/2000/svg" xmlns:xlink="http://www.w3.org/1999/xlink" xml:space="preserve" xmlns:serif="http://www.serif.com/" style="fill-rule:evenodd;clip-rule:evenodd;stroke-linejoin:round;stroke-miterlimit:1.41421;"><path d="M21.412,1.5l-18.824,0c-1.038,0 -1.882,0.843 -1.882,1.878l0,17.244c0,1.035 0.844,1.878 1.882,1.878l18.824,0c1.038,0 1.882,-0.843 1.882,-1.878l0,-13.475l0,-0.941l0,-2.828c0,-1.035 -0.844,-1.878 -1.882,-1.878Zm0.941,19.122c0,0.516 -0.422,0.937 -0.941,0.937l-18.824,0c-0.519,0 -0.941,-0.421 -0.941,-0.937l0,-13.475l20.706,0l0,13.475Zm0,-14.416l-20.706,0l0,-2.828c0,-0.516 0.422,-0.937 0.941,-0.937l18.824,0c0.519,0 0.941,0.421 0.941,0.937l0,2.828l0,0Z" style="fill:#80dfff;fill-rule:nonzero;"/><circle cx="4" cy="4.324" r="0.941" style="fill:#80dfff;"/><circle cx="6.824" cy="4.324" r="0.941" style="fill:#80dfff;"/><circle cx="9.647" cy="4.324" r="0.941" style="fill:#80dfff;"/><path d="M18.862,13.735l-3.294,-2.353c-0.212,-0.151 -0.506,-0.102 -0.657,0.109c-0.151,0.212 -0.102,0.506 0.11,0.657l2.758,1.97l-2.758,1.97c-0.212,0.151 -0.261,0.445 -0.11,0.656c0.092,0.129 0.237,0.197 0.384,0.197c0.094,0 0.19,-0.028 0.273,-0.087l3.294,-2.353c0.123,-0.089 0.197,-0.231 0.197,-0.383c0,-0.152 -0.074,-0.295 -0.197,-0.383Z" style="fill:#80dfff;fill-rule:nonzero;"/><path d="M12.617,10.242l-2.141,7.493l0.905,0.258l2.141,-7.492l-0.905,-0.259Z" style="fill:#80dfff;"/><path d="M8.979,16.088l-2.758,-1.97l2.758,-1.97c0.212,-0.151 0.261,-0.445 0.11,-0.657c-0.151,-0.211 -0.445,-0.26 -0.657,-0.109l-3.294,2.353c-0.123,0.088 -0.197,0.231 -0.197,0.383c0,0.152 0.074,0.294 0.197,0.383l3.294,2.352c0.083,0.06 0.179,0.088 0.273,0.088c0.147,0 0.292,-0.068 0.384,-0.197c0.151,-0.211 0.102,-0.505 -0.11,-0.656Z" style="fill:#80dfff;fill-rule:nonzero;"/></svg>