<?xml version="1.0" encoding="UTF-8" standalone="no"?><!DOCTYPE svg PUBLIC "-//W3C//DTD SVG 1.1//EN" "http://www.w3.org/Graphics/SVG/1.1/DTD/svg11.dtd"><svg width="100%" height="100%" viewBox="0 0 24 24" version="1.1" xmlns="http://www.w3.org/2000/svg" xmlns:xlink="http://www.w3.org/1999/xlink" xml:space="preserve" xmlns:serif="http://www.serif.com/" style="fill-rule:evenodd;clip-rule:evenodd;stroke-linejoin:round;stroke-miterlimit:1.41421;"><clipPath id="_clip1"><rect x="0" y="0" width="24" height="24"/></clipPath><g clip-path="url(#_clip1)"><path d="M21.674,12.55l0,-2.872c0,-5.337 -4.341,-9.678 -9.674,-9.678c-5.333,0 -9.674,4.341 -9.674,9.674l0,2.872c-0.68,0.297 -1.162,0.977 -1.162,1.771c0,0.935 0.666,1.714 1.55,1.894l0,0.038c0,1.067 0.869,1.936 1.936,1.936l1.937,0l0,-7.737l-1.937,0c-0.633,0 -1.195,0.312 -1.549,0.784l0,-1.558c0,-4.908 3.991,-8.904 8.904,-8.904c4.912,0 8.903,3.991 8.903,8.904l0,1.558c-0.354,-0.472 -0.911,-0.784 -1.549,-0.784l-1.936,0l0,7.742l1.549,0l0,1.937c0,1.067 -0.869,1.936 -1.937,1.936l-2.777,0c-0.217,-0.666 -0.968,-1.162 -1.866,-1.162c-1.067,0 -1.937,0.695 -1.937,1.55c0,0.855 0.87,1.549 1.937,1.549c0.898,0 1.649,-0.496 1.866,-1.162l2.777,0c1.493,0 2.712,-1.214 2.712,-2.711l0,-1.975c0.883,-0.179 1.549,-0.963 1.549,-1.894l0,-0.038c0.874,-0.184 1.54,-0.968 1.54,-1.898c0,-0.794 -0.477,-1.474 -1.162,-1.772Zm-18.19,-0.165c0,-0.642 0.519,-1.162 1.162,-1.162l1.162,0l0,6.192l-1.162,0c-0.643,0 -1.162,-0.519 -1.162,-1.162l0,-3.868Zm-0.77,3.023c-0.454,-0.161 -0.775,-0.586 -0.775,-1.086c0,-0.506 0.326,-0.931 0.775,-1.092l0,2.178Zm9.673,7.813c-0.628,0 -1.162,-0.355 -1.162,-0.775c0,-0.42 0.534,-0.775 1.162,-0.775c0.629,0 1.162,0.355 1.162,0.775c0,0.42 -0.533,0.775 -1.162,0.775Zm8.129,-6.968c0,0.643 -0.519,1.162 -1.162,1.162l-1.162,0l0,-6.192l1.162,0c0.643,0 1.162,0.52 1.162,1.162l0,3.868Zm0.77,-0.845l0,-2.178c0.449,0.161 0.775,0.586 0.775,1.092c0,0.505 -0.321,0.925 -0.775,1.086Z" style="fill:#80dfff;fill-rule:nonzero;"/></g></svg>