<?xml version="1.0" encoding="UTF-8" standalone="no"?><!DOCTYPE svg PUBLIC "-//W3C//DTD SVG 1.1//EN" "http://www.w3.org/Graphics/SVG/1.1/DTD/svg11.dtd"><svg width="100%" height="100%" viewBox="0 0 200 56" version="1.1" xmlns="http://www.w3.org/2000/svg" xmlns:xlink="http://www.w3.org/1999/xlink" xml:space="preserve" xmlns:serif="http://www.serif.com/" style="fill-rule:evenodd;clip-rule:evenodd;stroke-linejoin:round;stroke-miterlimit:1.41421;"><rect id="Монтажная-область1" serif:id="Монтажная область1" x="0" y="0" width="200" height="56" style="fill:none;"/><path id="path12875" d="M149.076,16.13l-5.974,0c-0.218,0 -0.42,0.114 -0.534,0.299l-4.946,8.025c-0.245,0.399 -0.824,0.399 -1.069,0l-4.946,-8.025c-0.115,-0.186 -0.316,-0.299 -0.535,-0.299l-5.974,0c-0.346,0 -0.627,0.281 -0.627,0.627l0,22.486c0,0.347 0.281,0.628 0.627,0.628l5.189,0c0.347,0 0.628,-0.281 0.628,-0.628l0,-10.832c0,-0.624 0.812,-0.865 1.153,-0.344l4.884,7.463l0.135,0l4.918,-7.527c0.341,-0.523 1.153,-0.282 1.153,0.343l0,10.897c0,0.347 0.281,0.628 0.628,0.628l5.29,0c0.346,0 0.627,-0.281 0.627,-0.628l0,-22.486c0,-0.346 -0.281,-0.627 -0.627,-0.627m-34.174,12.049c0,-3.618 -2.933,-6.55 -6.55,-6.55c-3.618,0 -6.55,2.932 -6.55,6.55c0,3.618 2.932,6.55 6.55,6.55c3.617,0 6.55,-2.932 6.55,-6.55m6.143,-0.179c0,6.817 -5.494,12.346 -12.821,12.346c-2.076,0 -3.991,-0.452 -5.682,-1.237l-9.746,14.537l-2.093,-1.402l9.668,-14.424c-3.022,-2.243 -4.899,-5.78 -4.899,-9.82c0,-6.817 5.495,-12.344 12.82,-12.344c2.21,0 4.241,0.504 6.008,1.385l9.846,-14.687l2.093,1.403l-9.807,14.63c2.858,2.252 4.613,5.702 4.613,9.613m72.375,-3.221c0,-2.036 -1.424,-3.12 -3.798,-3.12l-2.458,0c-0.347,0 -0.628,0.281 -0.628,0.627l0,5.02c0,0.345 0.281,0.627 0.628,0.627l2.492,0c2.34,0 3.764,-1.222 3.764,-3.154m6.58,-0.238c0,5.596 -4.307,8.548 -10.208,8.548l-2.628,0c-0.347,0 -0.628,0.28 -0.628,0.627l0,5.527c0,0.347 -0.282,0.628 -0.628,0.628l-5.324,0c-0.346,0 -0.628,-0.281 -0.628,-0.628l0,-22.486c0,-0.346 0.282,-0.627 0.628,-0.627l9.547,0c6.003,0 9.869,3.086 9.869,8.411m-24.877,-8.411l-5.18,0c-0.207,0 -0.401,0.1 -0.518,0.273l-7.859,11.424c-0.349,0.509 -1.146,0.262 -1.146,-0.354l0,-10.716c0,-0.346 -0.28,-0.627 -0.627,-0.627l-5.256,0c-0.347,0 -0.628,0.281 -0.628,0.627l0,22.486c0,0.347 0.281,0.628 0.628,0.628l5.181,0c0.207,0 0.4,-0.1 0.517,-0.272l7.859,-11.425c0.349,-0.508 1.146,-0.261 1.146,0.355l0,10.714c0,0.347 0.28,0.628 0.627,0.628l5.256,0c0.347,0 0.628,-0.281 0.628,-0.628l0,-22.486c0,-0.346 -0.281,-0.627 -0.628,-0.627m-128.532,0l-5.726,0c-0.247,0 -0.469,0.143 -0.572,0.367l-4.364,9.574c-0.221,0.485 -0.906,0.492 -1.138,0.015l-4.638,-9.6c-0.104,-0.216 -0.325,-0.355 -0.565,-0.355l-5.89,0c-0.472,0 -0.776,0.505 -0.554,0.923l8.585,16.199c0.137,0.26 0.077,0.586 -0.146,0.776c-0.605,0.514 -1.224,0.655 -1.704,0.655c-0.579,0 -1.382,-0.128 -2.155,-0.514c-0.303,-0.149 -0.667,-0.029 -0.828,0.26l-1.978,3.643c-0.169,0.311 -0.046,0.696 0.266,0.861c1.461,0.773 3.126,1.277 5.136,1.277c3.663,0 5.867,-1.73 8.038,-5.968l8.792,-17.197c0.214,-0.419 -0.09,-0.915 -0.559,-0.915m47.496,19.39c0.224,-0.285 0.172,-0.697 -0.123,-0.907l-3.958,-2.818c-0.258,-0.185 -0.617,-0.152 -0.826,0.085c-1.317,1.493 -2.732,2.462 -5.001,2.462c-3.324,0 -5.664,-2.78 -5.664,-6.342c0,-3.527 2.34,-6.342 5.664,-6.342c2.07,0 3.577,0.872 4.854,2.31c0.216,0.242 0.587,0.268 0.844,0.071l3.85,-2.983c0.273,-0.21 0.33,-0.606 0.118,-0.876c-2.084,-2.655 -5.028,-4.522 -9.599,-4.522c-7.19,0 -12.514,5.425 -12.514,12.344c0,7.157 5.46,12.346 12.243,12.346c4.95,0 7.915,-2.016 10.112,-4.826m-30.902,-10.742c0,-2.035 -1.425,-3.121 -3.799,-3.121l-2.458,0c-0.347,0 -0.628,0.281 -0.628,0.629l0,5.018c0,0.347 0.281,0.629 0.628,0.629l2.492,0c2.34,0 3.765,-1.222 3.765,-3.155m6.58,-0.237c0,5.596 -4.308,8.547 -10.209,8.547l-2.628,0c-0.347,0 -0.628,0.28 -0.628,0.628l0,5.527c0,0.347 -0.281,0.628 -0.628,0.628l-5.324,0c-0.347,0 -0.627,-0.281 -0.627,-0.628l0,-22.486c0,-0.346 0.28,-0.627 0.627,-0.627l9.547,0c6.003,0 9.87,3.086 9.87,8.411m-47.582,14.346c0.287,0.417 -0.014,0.984 -0.517,0.984l-6.377,0c-0.208,0 -0.403,-0.1 -0.519,-0.277l-5.333,-7.876c-0.228,-0.338 -0.714,-0.371 -0.987,-0.071l-1.71,1.903c-0.103,0.114 -0.16,0.264 -0.16,0.42l0,5.27c0,0.347 -0.282,0.627 -0.629,0.627l-5.323,0c-0.347,0 -0.628,-0.28 -0.628,-0.627l0,-22.486c0,-0.347 0.281,-0.628 0.628,-0.628l5.323,0c0.347,0 0.629,0.281 0.629,0.628l0,7.294c0,0.585 0.728,0.852 1.106,0.406l6.879,-8.106c0.119,-0.142 0.294,-0.222 0.479,-0.222l6.12,0c0.54,0 0.829,0.638 0.472,1.042l-7.747,8.799c-0.19,0.216 -0.209,0.534 -0.045,0.771l8.34,12.146l-0.001,0.003Z" style="fill:#fff;fill-rule:nonzero;"/></svg>