<?xml version="1.0" encoding="UTF-8" standalone="no"?><!DOCTYPE svg PUBLIC "-//W3C//DTD SVG 1.1//EN" "http://www.w3.org/Graphics/SVG/1.1/DTD/svg11.dtd"><svg width="100%" height="100%" viewBox="0 0 24 24" version="1.1" xmlns="http://www.w3.org/2000/svg" xmlns:xlink="http://www.w3.org/1999/xlink" xml:space="preserve" xmlns:serif="http://www.serif.com/" style="fill-rule:evenodd;clip-rule:evenodd;stroke-linejoin:round;stroke-miterlimit:1.41421;"><path d="M17.25,0l-10.5,0c-1.035,0.001 -1.874,0.84 -1.875,1.875l0,20.25c0.001,1.035 0.84,1.874 1.875,1.875l10.5,0c1.035,-0.001 1.874,-0.84 1.875,-1.875l0,-20.25c-0.001,-1.035 -0.84,-1.874 -1.875,-1.875Zm1.125,22.125c0,0.621 -0.504,1.125 -1.125,1.125l-10.5,0c-0.621,0 -1.125,-0.504 -1.125,-1.125l0,-2.25l12.75,0l0,2.25Zm0,-3l-12.75,0l0,-15l12.75,0l0,15Zm0,-15.75l-12.75,0l0,-1.5c0,-0.621 0.504,-1.125 1.125,-1.125l10.5,0c0.621,0 1.125,0.504 1.125,1.125l0,1.5Z" style="fill:#80dfff;fill-rule:nonzero;"/><path d="M12,20.25c-0.621,0 -1.125,0.504 -1.125,1.125c0,0.621 0.504,1.125 1.125,1.125c0.621,0 1.125,-0.504 1.125,-1.125c0,-0.621 -0.504,-1.125 -1.125,-1.125Zm0,1.5c-0.207,0 -0.375,-0.168 -0.375,-0.375c0,-0.207 0.168,-0.375 0.375,-0.375c0.207,0 0.375,0.168 0.375,0.375c0,0.207 -0.168,0.375 -0.375,0.375Z" style="fill:#80dfff;fill-rule:nonzero;"/><path d="M13.875,1.875l-3.75,0c-0.207,0 -0.375,0.168 -0.375,0.375c0,0.207 0.168,0.375 0.375,0.375l3.75,0c0.207,0 0.375,-0.168 0.375,-0.375c0,-0.207 -0.168,-0.375 -0.375,-0.375Z" style="fill:#80dfff;fill-rule:nonzero;"/><circle cx="11.993" cy="12" r="0.414" style="fill:#80dfff;"/><circle cx="14.667" cy="12" r="0.414" style="fill:#80dfff;"/><circle cx="9.32" cy="12" r="0.414" style="fill:#80dfff;"/></svg>