<?xml version="1.0" encoding="UTF-8" standalone="no"?><!DOCTYPE svg PUBLIC "-//W3C//DTD SVG 1.1//EN" "http://www.w3.org/Graphics/SVG/1.1/DTD/svg11.dtd"><svg width="100%" height="100%" viewBox="0 0 24 24" version="1.1" xmlns="http://www.w3.org/2000/svg" xmlns:xlink="http://www.w3.org/1999/xlink" xml:space="preserve" xmlns:serif="http://www.serif.com/" style="fill-rule:evenodd;clip-rule:evenodd;stroke-linejoin:round;stroke-miterlimit:1.41421;"><g><path d="M14.596,8.8l-10,0c-0.221,0 -0.4,0.179 -0.4,0.4c0,0.221 0.179,0.4 0.4,0.4l10,0c0.222,0 0.4,-0.179 0.4,-0.4c0,-0.221 -0.178,-0.4 -0.4,-0.4Z" style="fill:#80dfff;fill-rule:nonzero;"/><path d="M4.596,6.4l4,0c0.222,0 0.4,-0.179 0.4,-0.4c0,-0.221 -0.178,-0.4 -0.4,-0.4l-4,0c-0.221,0 -0.4,0.179 -0.4,0.4c0,0.221 0.179,0.4 0.4,0.4Z" style="fill:#80dfff;fill-rule:nonzero;"/><path d="M14.996,12.4c0,-0.221 -0.178,-0.4 -0.4,-0.4l-10,0c-0.221,0 -0.4,0.179 -0.4,0.4c0,0.221 0.179,0.4 0.4,0.4l10,0c0.222,0 0.4,-0.179 0.4,-0.4Z" style="fill:#80dfff;fill-rule:nonzero;"/><path d="M11.796,15.6c0,-0.221 -0.178,-0.4 -0.4,-0.4l-6.8,0c-0.221,0 -0.4,0.179 -0.4,0.4c0,0.221 0.179,0.4 0.4,0.4l6.8,0c0.222,0 0.4,-0.179 0.4,-0.4Z" style="fill:#80dfff;fill-rule:nonzero;"/><path d="M4.596,18.4c-0.221,0 -0.4,0.179 -0.4,0.4c0,0.221 0.179,0.4 0.4,0.4l5.6,0c0.222,0 0.4,-0.179 0.4,-0.4c0,-0.221 -0.178,-0.4 -0.4,-0.4l-5.6,0Z" style="fill:#80dfff;fill-rule:nonzero;"/><path d="M0.996,0.8l11.6,0l0,5.6l5.6,0l0,6l0.8,0l0,-6.566l-5.834,-5.834l-12.966,0l0,24l14.8,0l0,-0.8l-14,0l0,-22.4Zm12.4,0.566l4.235,4.234l-4.235,0l0,-4.234Z" style="fill:#80dfff;fill-rule:nonzero;"/><path d="M23.693,23.316l-2.388,-2.497c0.698,-0.768 1.128,-1.783 1.128,-2.901c0,-2.381 -1.937,-4.318 -4.318,-4.318c-2.381,0 -4.319,1.937 -4.319,4.318c0,2.382 1.938,4.319 4.319,4.319c0.977,0 1.875,-0.33 2.599,-0.879l2.401,2.511c0.078,0.082 0.183,0.123 0.289,0.123c0.1,0 0.199,-0.036 0.276,-0.11c0.16,-0.153 0.166,-0.406 0.013,-0.566Zm-9.097,-5.398c0,-1.94 1.579,-3.518 3.519,-3.518c1.94,0 3.518,1.578 3.518,3.518c0,1.94 -1.578,3.519 -3.518,3.519c-1.94,0 -3.519,-1.579 -3.519,-3.519Z" style="fill:#80dfff;fill-rule:nonzero;"/></g></svg>