<?xml version="1.0" encoding="UTF-8" standalone="no"?><!DOCTYPE svg PUBLIC "-//W3C//DTD SVG 1.1//EN" "http://www.w3.org/Graphics/SVG/1.1/DTD/svg11.dtd"><svg width="100%" height="100%" viewBox="0 0 24 24" version="1.1" xmlns="http://www.w3.org/2000/svg" xmlns:xlink="http://www.w3.org/1999/xlink" xml:space="preserve" xmlns:serif="http://www.serif.com/" style="fill-rule:evenodd;clip-rule:evenodd;stroke-linejoin:round;stroke-miterlimit:1.41421;"><path d="M19.596,16.938l-2.827,0c-0.584,0 -1.159,0.151 -1.667,0.439c-0.433,0.246 -0.807,0.582 -1.097,0.986c-0.193,-0.033 -0.389,-0.05 -0.585,-0.05l-2.83,0c-0.196,0 -0.392,0.017 -0.585,0.05c-0.29,-0.404 -0.664,-0.74 -1.097,-0.986c-0.508,-0.288 -1.083,-0.439 -1.667,-0.439l-2.827,0c-1.879,0.005 -3.401,1.526 -3.405,3.405l0,1.919c0.002,0.201 0.165,0.364 0.366,0.364l5.8,0l0,1.008c0,0.202 0.164,0.366 0.366,0.366l8.918,0c0.202,0 0.366,-0.164 0.366,-0.366l0,-1.008l5.8,0c0.202,0 0.366,-0.164 0.366,-0.366l0,-1.917c-0.004,-1.875 -1.52,-3.395 -3.395,-3.405Zm-12.383,4.452l0,0.504l-5.473,0l0,-1.551c0.005,-1.475 1.199,-2.669 2.674,-2.673l2.827,0c0.458,-0.001 0.908,0.117 1.306,0.343c0.268,0.151 0.507,0.346 0.709,0.577c-1.138,0.494 -1.919,1.565 -2.043,2.8Zm8.873,0.328l0,1.553l-8.169,0l0,-1.581l0,-0.215l0,-0.065c0,-0.025 0,-0.051 0,-0.076l0,-0.08l0,-0.026l0,-0.027l0,-0.056l0.015,-0.06l0.025,-0.091l0.018,-0.061c0.362,-1.098 1.386,-1.841 2.542,-1.846l0.073,-0.04l2.83,0c1.343,0.005 2.475,1.001 2.651,2.333c0,0.055 0,0.111 0.015,0.166c0,0.057 0,0.114 0,0.172Zm6.184,0.179l-5.448,0l0,-0.22l0,-0.292l0,-0.038l0,-0.043l0,-0.078l0,-0.013l0,-0.03l0,-0.028l0,-0.017l0,-0.033l0,-0.036l0,-0.017l0,-0.023l0,-0.023l0,-0.022l0,-0.056l0,-0.025l0,-0.033l0,-0.033l-0.018,-0.063l0,-0.025l0,-0.023l0,-0.017l0,-0.025l0,-0.033l-0.035,-0.099c-0.329,-0.873 -0.999,-1.575 -1.856,-1.944c0.152,-0.225 0.336,-0.425 0.547,-0.595c0.399,-0.226 0.849,-0.344 1.307,-0.343l2.829,0c1.475,0.004 2.669,1.198 2.674,2.673l0,1.554Z" style="fill:#80dfff;fill-rule:nonzero;"/><circle cx="12.02" cy="4.908" r="0.414" style="fill:#80dfff;"/><path d="M7.647,11.927c-0.482,-0.485 -1.137,-0.757 -1.821,-0.756c-1.422,-0.002 -2.576,1.15 -2.577,2.572c-0.001,1.422 1.15,2.576 2.573,2.578c1.422,0.001 2.576,-1.151 2.577,-2.573c0,-0.683 -0.27,-1.338 -0.752,-1.821Zm-0.517,3.12c-0.72,0.72 -1.887,0.72 -2.607,0c-0.72,-0.719 -0.721,-1.887 -0.001,-2.607c0.72,-0.72 1.887,-0.72 2.608,0c0.345,0.345 0.54,0.814 0.54,1.303c0,0.489 -0.194,0.958 -0.54,1.304Z" style="fill:#80dfff;fill-rule:nonzero;"/><circle cx="14.693" cy="4.908" r="0.414" style="fill:#80dfff;"/><path d="M16.313,1.433c-1.234,-0.949 -2.752,-1.453 -4.308,-1.432c-1.556,-0.021 -3.074,0.483 -4.308,1.432c-1.129,0.903 -1.828,2.159 -1.828,3.549c0.001,0.705 0.181,1.399 0.522,2.017c0.325,0.584 0.761,1.098 1.284,1.513l-0.29,1.93c-0.03,0.198 0.106,0.383 0.304,0.413c0.082,0.013 0.166,-0.003 0.238,-0.045l1.972,-1.15c0.313,0.093 0.631,0.164 0.953,0.214c0.383,0.059 0.769,0.089 1.156,0.089c1.556,0.021 3.074,-0.484 4.307,-1.433c1.127,-0.905 1.826,-2.159 1.826,-3.548c0,-1.39 -0.699,-2.646 -1.828,-3.549Zm-0.454,6.532c-1.107,0.842 -2.464,1.286 -3.854,1.261c-0.349,0.001 -0.697,-0.025 -1.042,-0.078c-0.342,-0.051 -0.679,-0.13 -1.008,-0.235c-0.098,-0.03 -0.204,-0.019 -0.293,0.033l-1.44,0.85l0.209,-1.387c0.02,-0.136 -0.037,-0.271 -0.148,-0.351c-0.518,-0.374 -0.948,-0.856 -1.261,-1.412c-0.281,-0.51 -0.428,-1.082 -0.429,-1.664c0,-1.161 0.592,-2.215 1.551,-2.981c1.106,-0.842 2.464,-1.286 3.853,-1.261c1.39,-0.025 2.748,0.419 3.854,1.261c0.958,0.756 1.551,1.82 1.551,2.981c0,1.16 -0.585,2.214 -1.543,2.983Z" style="fill:#80dfff;fill-rule:nonzero;"/><path d="M18.186,11.168c-1.422,-0.001 -2.576,1.151 -2.577,2.573c-0.001,0.682 0.27,1.337 0.752,1.82c0.481,0.485 1.137,0.757 1.82,0.757c1.423,0.001 2.576,-1.151 2.578,-2.573c0.001,-1.422 -1.151,-2.576 -2.573,-2.577Zm1.302,3.878c-0.72,0.72 -1.887,0.72 -2.607,0c-0.346,-0.345 -0.541,-0.814 -0.541,-1.303c0,-0.489 0.194,-0.958 0.54,-1.304c0.72,-0.72 1.887,-0.72 2.607,0c0.72,0.719 0.721,1.887 0.001,2.607Z" style="fill:#80dfff;fill-rule:nonzero;"/><circle cx="9.347" cy="4.908" r="0.414" style="fill:#80dfff;"/><path d="M13.822,13.293c-0.482,-0.481 -1.136,-0.751 -1.817,-0.75c-0.683,-0.001 -1.339,0.271 -1.821,0.756c-1.003,1.006 -1,2.635 0.006,3.638c1.007,1.003 2.636,1 3.638,-0.006c1.003,-1.007 1,-2.635 -0.006,-3.638Zm-1.817,3.67c-1.019,0 -1.844,-0.826 -1.844,-1.844c0.001,-1.018 0.826,-1.843 1.845,-1.843c0.488,0 0.957,0.194 1.303,0.54c0.346,0.346 0.54,0.815 0.54,1.304c-0.001,1.018 -0.826,1.843 -1.844,1.843Z" style="fill:#80dfff;fill-rule:nonzero;"/></svg>